<?xml version="1.0" encoding="UTF-8" standalone="no"?>
<!-- Created with Inkscape (http://www.inkscape.org/) -->

<svg
   xmlns:dc="http://purl.org/dc/elements/1.1/"
   xmlns:cc="http://creativecommons.org/ns#"
   xmlns:rdf="http://www.w3.org/1999/02/22-rdf-syntax-ns#"
   xmlns:svg="http://www.w3.org/2000/svg"
   xmlns="http://www.w3.org/2000/svg"
   xmlns:sodipodi="http://sodipodi.sourceforge.net/DTD/sodipodi-0.dtd"
   xmlns:inkscape="http://www.inkscape.org/namespaces/inkscape"
   width="960"
   height="109"
   viewBox="0 0 253.99999 28.839584"
   version="1.1"
   id="svg8"
   inkscape:version="0.92.2 (5c3e80d, 2017-08-06)"
   sodipodi:docname="ast.svg"
   inkscape:export-filename="C:\Users\Szieberth Ádám\Documents\BB\ast.png"
   inkscape:export-xdpi="96"
   inkscape:export-ydpi="96">
  <defs
     id="defs2" />
  <sodipodi:namedview
     id="base"
     pagecolor="#ffffff"
     bordercolor="#666666"
     borderopacity="1.0"
     inkscape:pageopacity="0.0"
     inkscape:pageshadow="2"
     inkscape:zoom="1.6236847"
     inkscape:cx="536.23209"
     inkscape:cy="-52.549592"
     inkscape:document-units="px"
     inkscape:current-layer="layer1"
     showgrid="true"
     units="px"
     inkscape:window-width="1600"
     inkscape:window-height="837"
     inkscape:window-x="-8"
     inkscape:window-y="-8"
     inkscape:window-maximized="1"
     inkscape:snap-bbox="true"
     inkscape:bbox-paths="true"
     inkscape:snap-object-midpoints="true"
     inkscape:bbox-nodes="true"
     inkscape:snap-smooth-nodes="true"
     inkscape:snap-midpoints="true"
     inkscape:object-paths="true"
     inkscape:object-nodes="true"
     inkscape:snap-intersection-paths="true"
     inkscape:snap-bbox-edge-midpoints="true"
     inkscape:snap-bbox-midpoints="true"
     inkscape:snap-center="false"
     inkscape:snap-grids="true"
     inkscape:snap-nodes="true"
     inkscape:snap-others="true"
     showguides="true"
     inkscape:guide-bbox="true">
    <inkscape:grid
       type="xygrid"
       id="grid919" />
  </sodipodi:namedview>
  <metadata
     id="metadata5">
    <rdf:RDF>
      <cc:Work
         rdf:about="">
        <dc:format>image/svg+xml</dc:format>
        <dc:type
           rdf:resource="http://purl.org/dc/dcmitype/StillImage" />
        <dc:title />
      </cc:Work>
    </rdf:RDF>
  </metadata>
  <g
     inkscape:groupmode="layer"
     id="layer2"
     inkscape:label="1. réteg 1" />
  <g
     inkscape:label="1. réteg"
     inkscape:groupmode="layer"
     id="layer1"
     transform="translate(0,-268.1604)">
    <text
       id="text831"
       y="300.81009"
       x="46.089989"
       style="font-style:normal;font-variant:normal;font-weight:normal;font-stretch:normal;font-size:18.44270706px;line-height:1.25;font-family:morse;-inkscape-font-specification:morse;text-align:center;letter-spacing:0px;word-spacing:0px;text-anchor:middle;fill:#000000;fill-opacity:1;stroke:none;stroke-width:0.46106765;"
       xml:space="preserve"><tspan
         style="font-style:normal;font-variant:normal;font-weight:normal;font-stretch:normal;font-family:morse;-inkscape-font-specification:morse;text-align:center;text-anchor:middle;stroke-width:0.46106765;"
         y="321.55814"
         x="46.089989"
         id="tspan829"
         sodipodi:role="line" /></text>
    <path
       style="font-style:normal;font-variant:normal;font-weight:normal;font-stretch:normal;font-size:medium;line-height:1.25;font-family:Storybook;-inkscape-font-specification:Storybook;text-align:center;letter-spacing:0px;word-spacing:0px;text-anchor:middle;fill:#000000;fill-opacity:1;stroke:none;stroke-width:0.46106765"
       d="m 199.07001,274.68765 c -0.66393,0 -1.21143,0.1846 -1.64176,0.55345 -0.41803,0.36886 -0.62683,0.82959 -0.62683,1.38287 0,0.20902 0.0368,0.43673 0.11058,0.68264 l 0.1602,0.43563 c -0.30242,-0.0374 -0.60924,-0.0564 -0.91674,-0.0568 -2.83115,-8e-5 -5.12631,1.53989 -5.1263,3.43958 0.002,0.98708 0.63668,1.92589 1.74149,2.57762 -0.0475,0.002 -0.0815,0.008 -0.13746,0.008 -0.20902,0 -0.38731,0.0184 -0.53485,0.0553 -0.13525,0.0246 -0.24566,0.0861 -0.33176,0.18448 -0.0738,0.0984 -0.17843,0.23353 -0.31368,0.40566 -0.12292,0.17213 -0.18448,0.32571 -0.18448,0.46096 0.0737,-0.0246 0.13528,-0.0367 0.18448,-0.0367 0.0861,0 0.14759,0.006 0.18449,0.0186 0.31967,0.0984 0.47956,0.28245 0.47956,0.55294 0,0.17213 -0.0431,0.36883 -0.12919,0.59014 l -0.092,0.23978 c -0.11068,0.40574 -0.16588,0.75022 -0.16588,1.03301 0,0.51639 0.25772,1.01446 0.77411,1.49397 0.46721,0.41803 1.13147,0.62683 1.99213,0.62683 0.49181,0 0.92203,-0.092 1.29088,-0.27646 0.38115,-0.17213 0.74404,-0.43668 1.0883,-0.79324 0.13525,-0.14754 0.25831,-0.26426 0.36897,-0.35036 0.11065,-0.0738 0.22111,-0.12898 0.33176,-0.16588 0.11063,-0.0369 0.19058,-0.0553 0.23978,-0.0553 0.13525,0 0.23988,0.0247 0.31368,0.0739 0.15985,0.11066 0.23978,0.26423 0.23978,0.46095 0,0.11065 -0.031,0.24582 -0.0925,0.40566 -0.0492,0.17213 -0.10438,0.31362 -0.16589,0.42427 -0.0615,0.11066 -0.13507,0.22111 -0.22117,0.33176 l 0.53485,-0.0367 c 1.70903,-0.23361 2.56315,-0.98359 2.56315,-2.24999 0,-0.14754 -0.006,-0.25797 -0.0181,-0.33177 -0.0615,-0.59017 -0.2955,-1.06402 -0.70124,-1.42058 -0.39345,-0.36885 -0.9094,-0.55294 -1.54875,-0.55294 -0.11065,-0.0125 -0.27053,-0.0186 -0.47955,-0.0186 -0.67623,0 -1.23583,0.19669 -1.67845,0.59014 -0.12297,0.12293 -0.20288,0.20919 -0.23978,0.25839 -0.0615,0.0861 -0.11668,0.17806 -0.16589,0.27646 l -0.25838,0.42427 c -0.43033,0.70082 -0.7501,1.17416 -0.95911,1.42007 -0.20902,0.2582 -0.41151,0.43014 -0.60823,0.51624 -0.12296,0.0492 -0.21549,0.0739 -0.27699,0.0739 -0.24591,0 -0.42999,-0.11045 -0.55294,-0.33176 -0.0738,-0.11066 -0.1111,-0.22742 -0.1111,-0.35037 0,-0.2582 0.16619,-0.55955 0.49816,-0.90382 l 0.29507,-0.29507 c 0.34426,-0.30738 0.51625,-0.65817 0.51625,-1.05162 0,-0.29402 -0.11234,-0.64908 -0.32453,-1.05885 0.56992,0.14251 1.17309,0.21583 1.78129,0.21653 2.83094,-1.1e-4 5.12579,-1.54003 5.12579,-3.43959 -0.001,-1.17947 -0.8957,-2.27893 -2.35833,-2.89295 -0.20939,-0.0879 -0.37753,-0.0944 -0.57224,-0.24329 -0.19472,-0.14888 -0.31368,-0.39941 -0.31368,-0.57154 0,-0.14754 0.0678,-0.30111 0.20309,-0.46095 0.13525,-0.15984 0.29512,-0.23978 0.47955,-0.23978 0.17213,0 0.30096,0.0615 0.38706,0.18448 0.0983,0.0861 0.15989,0.1781 0.18448,0.27647 0.0615,0.14754 0.092,0.2764 0.092,0.38706 0,0.15984 -0.0368,0.31393 -0.11059,0.46147 0.0492,0.0123 0.12329,0.0181 0.22169,0.0181 0.17213,0 0.33781,-0.0305 0.49765,-0.092 0.61476,-0.22131 0.92242,-0.69465 0.92242,-1.42007 0,-0.13525 -0.006,-0.2336 -0.0186,-0.29507 -0.0861,-0.59017 -0.44265,-1.03879 -1.0697,-1.34617 -0.14755,-0.0738 -0.27692,-0.12319 -0.38758,-0.1478 -0.11065,-0.0369 -0.2332,-0.0553 -0.36845,-0.0553 z m -2.91455,4.02869 c 0.82204,2e-4 1.48838,0.55656 1.48828,2.40864 1e-4,1.85209 -0.66624,2.40845 -1.48828,2.40864 -0.82224,2.7e-4 -1.4888,-0.55655 -1.4888,-2.40864 0,-1.85208 0.66656,-2.40891 1.4888,-2.40864 z"
       id="path1106"
       inkscape:connector-curvature="0"
       sodipodi:nodetypes="ccscccccsccccscsccscsccccscsccccscccsccccccscsccscccszscsccscscscccscccccc" />
    <path
       inkscape:connector-curvature="0"
       id="path1036"
       style="font-style:normal;font-variant:normal;font-weight:normal;font-stretch:normal;font-size:medium;line-height:1.25;font-family:Storybook;-inkscape-font-specification:Storybook;text-align:center;letter-spacing:0px;word-spacing:0px;text-anchor:middle;fill:#000000;fill-opacity:1;stroke:none;stroke-width:0.46106765"
       d="m 21.905945,287.22873 -0.387297,0.7746 -0.461067,-0.14755 q -0.866808,-0.29508 -1.456974,-0.35041 -0.590167,-0.0738 -1.604516,-0.0738 -0.645495,0 -1.198776,0.14754 -0.553281,0.14754 -1.16189,0.42419 l -0.756151,-0.71927 0.09221,-0.11066 0.20287,-0.22131 q 0.368854,-0.42418 0.47951,-0.77459 0.129099,-0.36886 0.129099,-1.01435 v -0.35041 l -0.01844,-0.0553 -0.129099,-0.75615 -0.03689,-0.1291 -0.09221,-0.47951 -0.147542,0.20287 q -0.442625,0.53484 -0.811479,0.75615 -0.368854,0.22131 -0.848365,0.22131 -0.239755,0 -0.608609,-0.0553 -0.350411,-0.0553 -0.811479,-0.31352 l -0.368854,-0.2582 -0.05533,0.62705 q 0,1.67829 1.622958,2.50821 l 0.20287,0.0922 -0.497953,0.81148 -0.571724,-0.23975 q -0.553282,-0.20287 -1.198776,-0.27664 -0.645495,-0.0922 -1.235662,-0.0922 -0.7745928,0 -1.1250048,0.14754 -0.331969,0.1291 -0.6086087,0.47952 l -0.7192657,-0.71927 0.40574,-0.42418 q 0.7561504,-0.86681 1.1618894,-1.53075 0.424183,-0.68238 0.700823,-1.42009 0.2028698,-0.60861 0.2950838,-1.16189 -0.3135258,-0.27664 -0.6639378,-0.27664 -0.645495,0 -0.922135,0.62706 l -0.1106557,0.31352 q -0.9959063,-0.40574 -0.9959063,-1.69673 0,-0.2582 0.055328,-0.59016 0.05533,-0.33197 0.221313,-0.59017 0.3504113,-0.62705 0.88525,-0.92214 0.553281,-0.31352 1.3832028,-0.31352 0.165984,0 0.405739,0.0369 0.239756,0.0185 0.368855,0.0369 l 0.239755,0.0553 0.165984,-0.47951 q 0.313526,-1.10657 0.313526,-1.86272 0,-0.88525 -0.516396,-1.62296 l -0.295083,-0.35041 0.461068,-0.66393 q 0.811479,0.31352 1.290989,0.38729 0.479511,0.0738 1.180334,0.0738 0.110656,0.0185 0.202869,0.0185 0.110657,0 0.239755,0 0.20287,0 0.424183,0 0.221312,0 0.47951,-0.0185 l 0.424182,-0.0369 0.516396,-0.0369 q 0.737708,0 1.327875,-0.18442 0.03689,-0.0184 0.68238,-0.2582 l 0.60861,0.62705 -0.184427,0.22131 q -0.40574,0.53484 -0.40574,1.18034 0,0.57172 0.276641,2.17623 0.129099,0.84837 0.461067,1.93649 l 0.461068,1.47542 0.165984,0.49795 0.295084,0.97746 q 0.27664,0.86681 0.553281,1.49386 0.27664,0.60861 0.663937,1.14345 0.20287,0.29508 0.442625,0.57172 0.239755,0.27664 0.516396,0.53484 z m -6.842244,-5.21928 q 0.01844,-0.16599 -0.01844,-0.3873 -0.03688,-0.23976 -0.165984,-0.71927 l -0.258198,-1.01435 -0.01844,-0.0738 -0.184427,-0.60861 -0.129099,-0.44262 -0.663937,-1.80739 -0.479511,0.0184 -0.07377,0.35041 -0.07377,0.42418 -0.07377,0.44263 -0.07377,0.36885 -0.20287,0.77459 q -0.165984,0.55328 -0.165984,0.7746 0,0.20287 0.09221,0.36885 0.129099,0.16599 0.20287,0.27664 l 0.497953,0.70082 0.05533,0.0922 0.516396,0.66394 q 0.165984,0.22131 0.442625,0.33196 0.110656,0.0553 0.239755,0.0553 0.20287,0 0.368854,-0.16598 0.165985,-0.16599 0.165985,-0.42418 z" />
    <path
       inkscape:connector-curvature="0"
       id="path1038"
       style="font-style:normal;font-variant:normal;font-weight:normal;font-stretch:normal;font-size:medium;line-height:1.25;font-family:Storybook;-inkscape-font-specification:Storybook;text-align:center;letter-spacing:0px;word-spacing:0px;text-anchor:middle;fill:#000000;fill-opacity:1;stroke:none;stroke-width:0.46106765"
       d="m 28.238802,275.05654 q -0.479511,0.42419 -0.700823,0.94058 -0.221313,0.5164 -0.387297,1.60452 -0.03689,0.36885 -0.05533,1.14345 -0.01844,0.77459 -0.01844,2.30533 v 0.99591 q 0,1.06968 0.03689,1.67829 0.03689,0.59016 0.07377,0.92213 0.147542,1.25411 0.276641,1.65985 0.129099,0.40574 0.553281,0.90369 l 0.20287,0.22131 -0.387297,0.62705 q -0.793036,-0.36885 -1.918041,-0.47951 -0.68238,0 -1.364761,0 -0.88525,0.0369 -1.512302,0.35041 l -0.442625,-0.59016 q 0.479511,-0.36886 0.682381,-0.81148 0.202869,-0.46107 0.405739,-1.73362 0.05533,-0.29508 0.09221,-0.62705 0.03689,-0.35041 0.03689,-0.71926 v -0.23976 -0.77459 l -0.01844,-1.34632 -0.01844,-0.75615 -0.07377,-1.80739 q -0.129099,-1.53074 -0.368854,-2.17624 -0.221313,-0.66393 -0.793037,-1.23566 l 0.350412,-0.73771 q 0.442625,0.20287 0.829922,0.31353 0.387296,0.0922 0.995906,0.0922 0.387297,0 0.553281,0 1.051234,0 1.530745,-0.0553 0.497953,-0.0738 0.995906,-0.33197 z" />
    <path
       inkscape:connector-curvature="0"
       id="path1040"
       style="font-style:normal;font-variant:normal;font-weight:normal;font-stretch:normal;font-size:medium;line-height:1.25;font-family:Storybook;-inkscape-font-specification:Storybook;text-align:center;letter-spacing:0px;word-spacing:0px;text-anchor:middle;fill:#000000;fill-opacity:1;stroke:none;stroke-width:0.46106765"
       d="m 37.300799,284.37011 q 0.129099,0.36886 0.129099,0.7746 0,0.42418 -0.165985,0.92213 -0.27664,0.82992 -0.903692,1.29099 -0.60861,0.44263 -1.807386,0.62705 -0.442625,0.0738 -1.032791,0.0738 -1.08812,0 -1.936485,-0.33197 -0.829921,-0.35041 -1.659843,-1.06967 l -0.571724,-0.55328 -0.258198,-0.31353 q 0.331969,-0.36885 0.461068,-0.75615 0.129099,-0.40574 0.27664,-1.45697 0.03689,-0.18443 0.03689,-0.60861 0,-0.42419 0.01844,-0.71927 v -0.62705 l -0.01844,-0.35041 -0.01844,-0.97747 q -0.110656,-0.0184 -0.368854,-0.0184 -0.60861,0 -1.051235,0.2582 l -0.368854,-0.62705 q 0.553282,-0.49796 1.180334,-0.68238 0.295083,-0.0738 0.442625,-0.0738 0.01844,-0.18443 0.01844,-0.31353 0.01844,-0.14754 0.01844,-0.22131 0,-0.31353 -0.05533,-0.59017 -0.165985,-0.82992 -0.295083,-1.14345 -0.129099,-0.31352 -0.40574,-0.49795 l 0.221312,-0.73771 q 0.331969,0.0553 0.497954,0.0738 0.165984,0.0184 0.47951,0.0184 1.08812,0 2.711078,-0.53483 l 0.590167,-0.23976 0.608609,0.35041 -0.387297,0.62705 q -0.165984,0.35042 -0.258198,0.73771 -0.09221,0.3873 -0.147542,0.97747 l -0.05533,0.59016 -0.01844,0.31353 q 0.424182,0.0922 0.774593,0.0922 0.848365,0 1.659844,-0.40574 0.129099,-0.0738 0.184427,-0.0922 0.110656,-0.0553 0.276641,-0.20287 0.313526,0.5164 0.313526,1.08812 0,1.30943 -0.756151,1.86271 -0.424183,0.27664 -0.829922,0.27664 -0.165985,0 -0.40574,-0.0369 -0.221312,-0.0369 -0.387297,-0.0553 l -0.940578,-0.14754 v 4.03895 l 0.147542,0.95902 q 0.09221,0.68238 0.258198,0.90369 0.184427,0.20287 0.645495,0.20287 0.313526,0 0.553281,-0.18442 0.239755,-0.18443 0.27664,-0.46107 0.05533,-0.29508 0.05533,-0.47951 0,-0.60861 -0.479511,-0.6455 -0.461067,-0.0553 -0.516396,-0.0922 -0.129099,-0.0922 -0.258197,-0.3873 -0.110657,-0.29508 -0.110657,-0.55328 0,-0.44262 0.331969,-0.77459 0.331969,-0.33197 0.977463,-0.44263 0.295084,-0.0369 0.442625,-0.0369 1.106563,0 1.715172,1.03279 z" />
    <path
       inkscape:connector-curvature="0"
       id="path1042"
       style="font-style:normal;font-variant:normal;font-weight:normal;font-stretch:normal;font-size:medium;line-height:1.25;font-family:Storybook;-inkscape-font-specification:Storybook;text-align:center;letter-spacing:0px;word-spacing:0px;text-anchor:middle;fill:#000000;fill-opacity:1;stroke:none;stroke-width:0.46106765"
       d="m 49.896302,287.00742 -0.756151,1.01435 q -0.295083,-0.23976 -0.590166,-0.31353 -0.295084,-0.0738 -0.903693,-0.0738 -0.387297,0 -0.737708,0.0184 -0.350412,0 -0.663938,0 l -0.331968,0.0369 -0.184427,0.0184 -1.161891,0.16599 q -0.793036,0.1291 -1.475417,0.1291 -0.848364,0 -1.622958,-0.27665 -1.36476,-0.47951 -2.102468,-1.27254 -0.719266,-0.79304 -1.143448,-2.39755 -0.07377,-0.2582 -0.110656,-0.60861 -0.03689,-0.36886 -0.03689,-0.66394 0,-1.91804 1.143448,-3.17215 1.161891,-1.2541 3.356573,-1.65984 l 0.774593,-0.11066 -0.663937,-0.79303 -0.165984,-0.22132 -0.497954,-0.53483 q -0.442625,-0.49796 -0.811479,-0.82993 -0.368854,-0.35041 -0.700823,-0.57172 l 0.313526,-0.60861 q 1.254105,0.33197 2.581979,0.33197 1.069677,0 1.567631,-0.0553 0.497953,-0.0553 1.143447,-0.23975 l 0.313526,0.66393 q -0.331968,0.23976 -0.331968,0.57173 0,0.36885 0.368854,0.94058 0.368854,0.57172 1.235661,1.54918 0.590167,0.6455 1.438531,1.23566 -0.184427,0.40574 -0.27664,0.75616 -0.07377,0.35041 -0.129099,0.88525 l -0.01844,0.33196 -0.01844,0.49796 q 0,0.49795 -0.01844,0.95902 0,0.44262 0,0.84836 0,0.20287 0.01844,0.42419 0.01844,0.20286 0.01844,0.27664 0.147542,1.60451 0.350412,2.08402 0.202869,0.46107 0.829921,0.66394 z m -4.776661,-2.06558 -0.01844,-1.19878 v -1.3832 -0.6455 l -0.01844,-0.9959 q 0,-0.42419 -0.01844,-0.59017 -0.01844,-0.18443 -0.05533,-0.40574 -0.184427,-0.88525 -1.069677,-0.88525 -0.239755,0 -0.40574,0.0738 -0.368854,0.14754 -0.645494,0.49795 -0.276641,0.33197 -0.461068,0.92214 -0.09221,0.29508 -0.147542,0.57172 -0.03689,0.27664 -0.03689,0.84837 l -0.03688,0.64549 -0.01844,0.36886 v 1.01435 l 0.03688,0.36885 q 0.07377,0.82992 0.147542,1.19878 0.09221,0.36885 0.221312,0.66393 0.479511,0.82992 1.161891,0.82992 0.20287,0 0.497953,-0.0738 0.313526,-0.0738 0.534839,-0.40574 0.239755,-0.33196 0.295083,-0.79303 0.05533,-0.46107 0.03688,-0.62705 z" />
    <path
       inkscape:connector-curvature="0"
       id="path1044"
       style="font-style:normal;font-variant:normal;font-weight:normal;font-stretch:normal;font-size:medium;line-height:1.25;font-family:Storybook;-inkscape-font-specification:Storybook;text-align:center;letter-spacing:0px;word-spacing:0px;text-anchor:middle;fill:#000000;fill-opacity:1;stroke:none;stroke-width:0.46106765"
       d="m 61.290726,283.26355 q 0,0.33197 -0.09221,0.71927 -0.09221,0.38729 -0.239755,0.79303 -0.553282,1.45698 -1.752058,2.32378 -1.290989,0.94058 -2.913947,0.94058 -1.456974,0 -2.563537,-0.42418 -1.088119,-0.44263 -1.973369,-1.43853 -0.719266,-0.84837 -0.977464,-1.6414 -0.258198,-0.79304 -0.258198,-1.86272 0,-0.71926 0.20287,-1.29099 0.20287,-0.59016 0.627052,-1.2541 0.700823,-1.10656 1.862714,-1.73362 1.16189,-0.62705 2.563536,-0.62705 0.793036,0 1.530745,0.18443 1.622958,0.3873 2.655749,1.53074 0.719266,0.7746 1.014349,1.67829 0.313526,0.90369 0.313526,2.10247 z m -3.891411,0.23975 v -1.43853 -0.20287 l -0.09221,-0.8668 -0.05533,-0.40574 q -0.110657,-0.86681 -0.295084,-1.23566 -0.184427,-0.36886 -0.553281,-0.53484 -0.368854,-0.16599 -0.645495,-0.16599 -0.848364,0 -1.125005,1.23566 -0.07377,0.29509 -0.110656,0.57173 -0.03689,0.27664 -0.03689,0.90369 l -0.07377,1.05123 -0.01844,0.0922 q 0,0.3873 0,0.62705 0,0.23976 0.07377,1.10656 0.09221,0.84837 0.184427,1.29099 0.09221,0.44263 0.258198,0.75615 0.368854,0.71927 1.032791,0.71927 0.461068,0 0.848365,-0.42418 0.221312,-0.20287 0.368854,-0.62706 0.165984,-0.44262 0.165984,-1.03279 l 0.05533,-0.97746 z" />
    <path
       inkscape:connector-curvature="0"
       id="path1046"
       style="font-style:normal;font-variant:normal;font-weight:normal;font-stretch:normal;font-size:medium;line-height:1.25;font-family:Storybook;-inkscape-font-specification:Storybook;text-align:center;letter-spacing:0px;word-spacing:0px;text-anchor:middle;fill:#000000;fill-opacity:1;stroke:none;stroke-width:0.46106765"
       d="m 71.076886,280.4787 q 0,0.53484 -0.184427,0.99591 -0.184427,0.44262 -0.68238,0.95902 -0.479511,0.49795 -0.479511,0.88525 0,0.2582 0.258198,0.55328 -0.331968,0.22131 -0.756151,0.22131 -0.461067,0 -0.940578,-0.29508 -0.405739,-0.22131 -0.68238,-0.7746 -0.258198,-0.55328 -0.258198,-0.97746 0,-0.68238 0.848365,-1.82583 0.129099,-0.14754 0.165984,-0.53484 v -0.27664 q 0,-0.33197 -0.295083,-0.59016 -0.184427,-0.18443 -0.461068,-0.18443 -0.350411,0 -0.571724,0.27664 -0.221312,0.27664 -0.313526,0.55328 -0.09221,0.27664 -0.20287,0.94058 l -0.05533,0.49795 q -0.03688,0.33197 -0.05533,0.84837 -0.01844,0.51639 -0.01844,0.70082 0,2.23157 0.295084,3.22747 0.295083,0.99591 1.069677,1.80739 l -0.553281,0.5164 q -0.516396,-0.18443 -1.051235,-0.27665 -0.534838,-0.11065 -1.106562,-0.11065 -1.235662,0 -1.641401,0.0738 -0.40574,0.0553 -0.922135,0.33197 l -0.331968,-0.7193 q 0.590166,-0.64549 0.811479,-1.36476 0.221312,-0.71926 0.221312,-2.19468 0,-0.29508 -0.01844,-0.60861 0,-0.33197 0,-0.68238 0,-0.14754 0,-0.22131 0,-1.67829 -0.239755,-2.43444 -0.221313,-0.77459 -0.774594,-1.3832 l 0.313526,-0.59017 0.405739,0.1291 q 0.848365,0.23976 1.438532,0.23976 0.424182,0 1.309432,-0.14755 1.420088,-0.23975 1.954927,-0.23975 0.774593,0 1.235661,0.0922 0.47951,0.0922 0.829922,0.31353 0.793036,0.47951 1.106562,0.97746 0.331969,0.49795 0.331969,1.29099 z" />
    <path
       inkscape:connector-curvature="0"
       id="path1048"
       style="font-style:normal;font-variant:normal;font-weight:normal;font-stretch:normal;font-size:medium;line-height:1.25;font-family:Storybook;-inkscape-font-specification:Storybook;text-align:center;letter-spacing:0px;word-spacing:0px;text-anchor:middle;fill:#000000;fill-opacity:1;stroke:none;stroke-width:0.46106765"
       d="m 79.970779,275.4254 q -0.07377,0.84836 -0.516396,1.30943 -0.424182,0.44263 -1.069677,0.44263 -0.331969,0 -0.645495,-0.1291 -0.313526,-0.1291 -0.516395,-0.29509 -0.184427,-0.18442 -0.424183,-0.59016 l -0.461067,-0.71927 q -0.07377,-0.23975 -0.350412,-0.29508 -0.553281,-0.1291 -0.627052,0.36885 -0.01844,0.14754 0.03689,0.33197 0.07377,0.18443 0.258198,0.44263 l 0.295083,0.31352 q 0.47951,0.47951 0.663937,0.84837 0.184427,0.36885 0.295084,1.125 l 0.03688,0.36886 0.424182,0.0553 q 1.438531,0 2.084026,-0.81147 0.184427,0.25819 0.295083,0.6086 0.110657,0.33197 0.110657,0.68238 0,0.1291 -0.01844,0.27665 -0.01844,0.14754 -0.01844,0.23975 -0.09221,0.60861 -0.350411,0.94058 -0.239755,0.33197 -0.479511,0.49795 -0.239755,0.14754 -0.590166,0.14754 -0.442625,0 -1.161891,-0.23975 l -0.350411,-0.1291 0.05533,1.125 v 0.2582 0.92214 0.42418 q 0,0.27664 0.01844,0.47951 0.01844,0.20287 0.07377,0.66394 0.129098,1.03279 0.295083,1.45697 0.184427,0.40574 0.608609,0.70082 l -0.221312,0.79304 q -0.534839,-0.18443 -0.977464,-0.27664 -0.442625,-0.0922 -0.940578,-0.0922 -1.106562,0 -1.696729,0.0553 -0.571724,0.0369 -1.217219,0.2582 l -0.387296,-0.64549 q 0.424182,-0.29509 0.590166,-0.68238 0.165985,-0.40574 0.368854,-1.60452 0.03689,-0.27664 0.07377,-0.64549 0.03689,-0.36886 0.03689,-0.71927 v -0.33197 -0.71926 l -0.01844,-0.59017 v -0.5164 q 0,-0.40573 -0.03689,-0.55328 -0.01844,-0.16598 -0.147541,-0.62705 l -0.295083,-0.0922 q -0.258198,-0.0369 -0.40574,-0.0369 -0.258198,0 -0.47951,0.0738 l -0.20287,-0.77459 0.295083,-0.14754 q 0.442625,-0.20287 0.995906,-0.29509 0,-1.2541 -0.811479,-1.95492 0.295084,-1.53075 1.733615,-2.30534 0.368854,-0.16598 0.700823,-0.2582 0.350411,-0.11065 0.774593,-0.11065 0.663938,0 0.903693,0.0369 0.258198,0.0184 1.143448,0.23976 l 0.516396,0.0922 q 0.590166,0 0.922135,-0.0553 0.350411,-0.0738 0.793036,-0.27664 0.03689,0.11066 0.03689,0.23976 0,0.1291 0,0.25819 0,0.29509 -0.01844,0.44263 z" />
    <path
       inkscape:connector-curvature="0"
       id="path1050"
       style="font-style:normal;font-variant:normal;font-weight:normal;font-stretch:normal;font-size:medium;line-height:1.25;font-family:Storybook;-inkscape-font-specification:Storybook;text-align:center;letter-spacing:0px;word-spacing:0px;text-anchor:middle;fill:#000000;fill-opacity:1;stroke:none;stroke-width:0.46106765"
       d="m 100.64349,285.01561 q -0.62706,1.45697 -1.918046,2.23156 -1.438531,0.86681 -3.706984,0.86681 -0.424183,0 -0.627052,0 -0.165985,0 -0.258198,0 -0.387297,0 -0.774594,-0.0553 -1.254104,-0.16598 -2.157797,-0.44262 -0.903692,-0.29508 -1.549187,-0.70082 -0.627052,-0.42419 -0.977464,-1.01435 -0.331968,-0.59017 -0.331968,-1.18034 0,-1.125 0.995906,-1.84427 0.350411,-0.23975 0.848364,-0.35041 0.497953,-0.11066 1.254104,-0.11066 0.663938,0 1.180334,0.27665 0.534838,0.25819 0.88525,0.77459 -0.239756,0.0553 -0.442625,0.20287 -0.88525,0.55328 -0.88525,1.47542 0,0.68238 0.590166,1.21721 0.350412,0.29509 0.922136,0.49796 0.534838,0.14754 0.977463,0.14754 0.977464,0 1.622958,-0.53484 0.663938,-0.55328 0.663938,-1.3832 0,-0.88525 -0.60861,-1.45698 -0.68238,-0.64549 -2.342223,-1.16189 l -0.07377,-0.0184 -1.438531,-0.40574 q -0.88525,-0.22131 -1.309432,-0.36885 -0.40574,-0.16599 -0.793037,-0.3873 -1.08812,-0.59017 -1.512302,-1.23566 -0.424182,-0.66394 -0.424182,-1.71517 0,-0.81148 0.20287,-1.36476 0.202869,-0.55328 0.793036,-1.25411 0.608609,-0.70082 1.659844,-1.03279 1.051234,-0.35041 2.508208,-0.35041 0.350411,0 0.774594,0.11066 0.424182,0.11065 1.235661,0.38729 1.051234,0.3873 1.7705,0.3873 0.424182,0 0.793036,-0.1291 0.387297,-0.1291 0.829922,-0.40574 l 0.331969,-0.22131 q 0.05533,0.1291 0.09221,0.31352 0.03689,0.18443 0.05533,0.27664 0,0.1291 0.01844,0.27665 0.01844,0.14754 0.01844,0.23975 0,0.29508 -0.03689,0.46107 -0.03689,0.16598 -0.03689,0.23975 -0.20287,0.95902 -0.811479,1.51231 -0.590167,0.53483 -1.36476,0.53483 -0.663938,0 -1.29099,-0.40574 -0.258198,-0.16598 -0.497953,-0.42418 -0.239755,-0.2582 -0.590167,-0.75615 -0.516395,-0.73771 -1.014349,-1.06968 -0.497953,-0.33196 -0.95902,-0.33196 -0.571724,0 -0.866808,0.42418 -0.295083,0.40574 -0.295083,0.73771 0,0.42418 0.424182,0.82992 0.442625,0.38729 1.401646,0.79303 0.20287,0.0738 0.959021,0.33197 1.733614,0.57173 2.065583,0.68238 2.213125,0.6455 3.301245,1.69673 1.106565,1.05124 1.106565,2.43444 0,0.81148 -0.3873,1.75206 z" />
    <path
       inkscape:connector-curvature="0"
       id="path1052"
       style="font-style:normal;font-variant:normal;font-weight:normal;font-stretch:normal;font-size:medium;line-height:1.25;font-family:Storybook;-inkscape-font-specification:Storybook;text-align:center;letter-spacing:0px;word-spacing:0px;text-anchor:middle;fill:#000000;fill-opacity:1;stroke:none;stroke-width:0.46106765"
       d="m 112.71031,282.83937 c 0,0.86066 -0.0922,1.56763 -0.27664,2.12091 -0.18443,0.54099 -0.47952,1.03894 -0.88525,1.49386 -0.50411,0.56557 -1.1619,0.96516 -1.97337,1.19877 -0.43033,0.11066 -0.83607,0.16599 -1.21722,0.16599 -0.90984,0 -1.73362,-0.28894 -2.47133,-0.86681 l -0.0922,2.52528 c -0.0278,0.76179 0.0799,1.38935 0.23976,1.88115 0.17213,0.50411 0.46721,0.94059 0.88525,1.30944 l -0.36886,0.64549 c -0.33197,-0.17213 -0.73156,-0.28894 -1.19877,-0.35041 -0.46722,-0.0492 -1.10042,-0.0738 -1.8996,-0.0738 -0.60247,0.0615 -1.19878,0.20286 -1.78895,0.42418 l -0.44263,-0.79304 c 0.29509,-0.22131 0.51025,-0.48565 0.6455,-0.79303 0.14755,-0.30738 0.28894,-0.84222 0.42419,-1.60452 0.0246,-0.18443 0.0553,-0.48566 0.0922,-0.90369 0.0369,-0.41803 0.0553,-2.64208 0.0553,-2.94946 v -0.64549 -0.70083 -0.59016 l -0.0184,-0.73771 c 0,-0.5041 -0.006,-0.86681 -0.0185,-1.08812 -0.0123,-0.23361 -0.0369,-0.51025 -0.0738,-0.82992 -0.0984,-1.14345 -0.21516,-1.91805 -0.35041,-2.32378 -0.13525,-0.41804 -0.36885,-0.76845 -0.70083,-1.05124 l 0.40575,-0.60861 c 0.39344,0.15984 0.75615,0.27664 1.08812,0.35041 0.33197,0.0615 0.71311,0.0922 1.14344,0.0922 0.46722,0 1.2787,-0.0492 2.43444,-0.14754 l 0.71927,-0.0738 c 0.0738,-0.0123 0.14754,-0.0184 0.22131,-0.0184 h 0.20287 0.42418 c 0.35656,0 0.65164,0.0246 0.88525,0.0738 0.23361,0.0492 0.52254,0.14141 0.86681,0.27664 0.65164,0.28279 1.18033,0.62706 1.58607,1.03279 0.41803,0.39345 0.7623,0.9037 1.03279,1.53075 0.28279,0.62705 0.42419,1.30329 0.42419,2.0287 z m -3.90986,-0.16599 v -0.20287 l -0.0184,-0.40574 c 0,-0.31967 -0.0123,-0.59017 -0.0369,-0.81148 -0.0246,-0.22131 -0.0492,-0.39958 -0.0738,-0.53483 -0.0738,-0.44263 -0.14754,-0.7746 -0.22131,-0.99591 -0.0738,-0.23361 -0.17213,-0.42418 -0.29508,-0.57172 -0.18443,-0.22131 -0.43648,-0.33197 -0.75615,-0.33197 -0.39345,0 -0.71312,0.16598 -0.95902,0.49795 -0.11066,0.14754 -0.20288,0.33811 -0.27665,0.57172 -0.0615,0.23361 -0.11679,0.54714 -0.16598,0.94058 l -0.0553,0.44263 -0.0738,1.06967 0.0553,1.49386 c 0.0615,0.67623 0.12909,1.16189 0.20287,1.45698 0.0861,0.29508 0.22131,0.55328 0.40574,0.77459 0.2582,0.29509 0.58197,0.41937 0.92213,0.44263 0.18039,0.0123 0.38115,-0.0553 0.5164,-0.16599 0.18443,-0.14754 0.32582,-0.35656 0.42418,-0.62705 0.11066,-0.27049 0.22132,-0.70697 0.33197,-1.30943 0.0246,-0.18443 0.043,-0.43648 0.0553,-0.75615 0.0123,-0.31967 0.0184,-0.6455 0.0184,-0.97747 z"
       sodipodi:nodetypes="ccccscscccccccccssccccccccccsccscssccccccccccccsccccccccscccscc" />
    <path
       inkscape:connector-curvature="0"
       id="path1054"
       style="font-style:normal;font-variant:normal;font-weight:normal;font-stretch:normal;font-size:medium;line-height:1.25;font-family:Storybook;-inkscape-font-specification:Storybook;text-align:center;letter-spacing:0px;word-spacing:0px;text-anchor:middle;fill:#000000;fill-opacity:1;stroke:none;stroke-width:0.46106765"
       d="m 124.51258,283.26355 q 0,0.33197 -0.0922,0.71927 -0.0922,0.38729 -0.23976,0.79303 -0.55328,1.45698 -1.75206,2.32378 -1.29099,0.94058 -2.91394,0.94058 -1.45698,0 -2.56354,-0.42418 -1.08812,-0.44263 -1.97337,-1.43853 -0.71927,-0.84837 -0.97746,-1.6414 -0.2582,-0.79304 -0.2582,-1.86272 0,-0.71926 0.20287,-1.29099 0.20287,-0.59016 0.62705,-1.2541 0.70082,-1.10656 1.86271,-1.73362 1.16189,-0.62705 2.56354,-0.62705 0.79304,0 1.53075,0.18443 1.62295,0.3873 2.65575,1.53074 0.71926,0.7746 1.01434,1.67829 0.31353,0.90369 0.31353,2.10247 z m -3.89141,0.23975 v -1.43853 -0.20287 l -0.0922,-0.8668 -0.0553,-0.40574 q -0.11066,-0.86681 -0.29509,-1.23566 -0.18442,-0.36886 -0.55328,-0.53484 -0.36885,-0.16599 -0.64549,-0.16599 -0.84837,0 -1.12501,1.23566 -0.0738,0.29509 -0.11065,0.57173 -0.0369,0.27664 -0.0369,0.90369 l -0.0738,1.05123 -0.0184,0.0922 q 0,0.3873 0,0.62705 0,0.23976 0.0738,1.10656 0.0922,0.84837 0.18443,1.29099 0.0922,0.44263 0.25819,0.75615 0.36886,0.71927 1.0328,0.71927 0.46106,0 0.84836,-0.42418 0.22131,-0.20287 0.36885,-0.62706 0.16599,-0.44262 0.16599,-1.03279 l 0.0553,-0.97746 z" />
    <path
       inkscape:connector-curvature="0"
       id="path1056"
       style="font-style:normal;font-variant:normal;font-weight:normal;font-stretch:normal;font-size:medium;line-height:1.25;font-family:Storybook;-inkscape-font-specification:Storybook;text-align:center;letter-spacing:0px;word-spacing:0px;text-anchor:middle;fill:#000000;fill-opacity:1;stroke:none;stroke-width:0.46106765"
       d="m 134.29874,280.4787 q 0,0.53484 -0.18443,0.99591 -0.18442,0.44262 -0.68238,0.95902 -0.47951,0.49795 -0.47951,0.88525 0,0.2582 0.2582,0.55328 -0.33197,0.22131 -0.75615,0.22131 -0.46107,0 -0.94058,-0.29508 -0.40574,-0.22131 -0.68238,-0.7746 -0.2582,-0.55328 -0.2582,-0.97746 0,-0.68238 0.84837,-1.82583 0.1291,-0.14754 0.16598,-0.53484 v -0.27664 q 0,-0.33197 -0.29508,-0.59016 -0.18443,-0.18443 -0.46107,-0.18443 -0.35041,0 -0.57172,0.27664 -0.22132,0.27664 -0.31353,0.55328 -0.0922,0.27664 -0.20287,0.94058 l -0.0553,0.49795 q -0.0369,0.33197 -0.0553,0.84837 -0.0184,0.51639 -0.0184,0.70082 0,2.23157 0.29509,3.22747 0.29508,0.99591 1.06967,1.80739 l -0.55328,0.5164 q -0.51639,-0.18443 -1.05123,-0.27665 -0.53484,-0.11065 -1.10657,-0.11065 -1.23566,0 -1.6414,0.0738 -0.40574,0.0553 -0.92213,0.33197 l -0.33197,-0.71927 q 0.59017,-0.64549 0.81148,-1.36476 0.22131,-0.71926 0.22131,-2.19468 0,-0.29508 -0.0184,-0.60861 0,-0.33197 0,-0.68238 0,-0.14754 0,-0.22131 0,-1.67829 -0.23976,-2.43444 -0.22131,-0.77459 -0.77459,-1.3832 l 0.31353,-0.59017 0.40574,0.1291 q 0.84836,0.23976 1.43853,0.23976 0.42418,0 1.30943,-0.14755 1.42009,-0.23975 1.95493,-0.23975 0.77459,0 1.23566,0.0922 0.47951,0.0922 0.82992,0.31353 0.79304,0.47951 1.10656,0.97746 0.33197,0.49795 0.33197,1.29099 z" />
    <path
       inkscape:connector-curvature="0"
       id="path1058"
       style="font-style:normal;font-variant:normal;font-weight:normal;font-stretch:normal;font-size:medium;line-height:1.25;font-family:Storybook;-inkscape-font-specification:Storybook;text-align:center;letter-spacing:0px;word-spacing:0px;text-anchor:middle;fill:#000000;fill-opacity:1;stroke:none;stroke-width:0.46106765"
       d="m 143.88069,284.37011 q 0.1291,0.36886 0.1291,0.7746 0,0.42418 -0.16598,0.92213 -0.27664,0.82992 -0.9037,1.29099 -0.60861,0.44263 -1.80738,0.62705 -0.44263,0.0738 -1.03279,0.0738 -1.08812,0 -1.93649,-0.33197 -0.82992,-0.35041 -1.65984,-1.06967 l -0.57173,-0.55328 -0.25819,-0.31353 q 0.33197,-0.36885 0.46106,-0.75615 0.1291,-0.40574 0.27664,-1.45697 0.0369,-0.18443 0.0369,-0.60861 0,-0.42419 0.0184,-0.71927 v -0.62705 l -0.0184,-0.35041 -0.0184,-0.97747 q -0.11066,-0.0184 -0.36886,-0.0184 -0.60861,0 -1.05123,0.2582 l -0.36886,-0.62705 q 0.55329,-0.49796 1.18034,-0.68238 0.29508,-0.0738 0.44262,-0.0738 0.0185,-0.18443 0.0185,-0.31353 0.0184,-0.14754 0.0184,-0.22131 0,-0.31353 -0.0553,-0.59017 -0.16598,-0.82992 -0.29508,-1.14345 -0.1291,-0.31352 -0.40574,-0.49795 l 0.22131,-0.73771 q 0.33197,0.0553 0.49795,0.0738 0.16599,0.0184 0.47951,0.0184 1.08812,0 2.71108,-0.53483 l 0.59017,-0.23976 0.60861,0.35041 -0.3873,0.62705 q -0.16598,0.35042 -0.2582,0.73771 -0.0922,0.3873 -0.14754,0.97747 l -0.0553,0.59016 -0.0184,0.31353 q 0.42418,0.0922 0.77459,0.0922 0.84837,0 1.65985,-0.40574 0.1291,-0.0738 0.18442,-0.0922 0.11066,-0.0553 0.27665,-0.20287 0.31352,0.5164 0.31352,1.08812 0,1.30943 -0.75615,1.86271 -0.42418,0.27664 -0.82992,0.27664 -0.16599,0 -0.40574,-0.0369 -0.22131,-0.0369 -0.3873,-0.0553 l -0.94058,-0.14754 v 4.03895 l 0.14755,0.95902 q 0.0922,0.68238 0.25819,0.90369 0.18443,0.20287 0.6455,0.20287 0.31352,0 0.55328,-0.18442 0.23975,-0.18443 0.27664,-0.46107 0.0553,-0.29508 0.0553,-0.47951 0,-0.60861 -0.47951,-0.6455 -0.46107,-0.0553 -0.5164,-0.0922 -0.1291,-0.0922 -0.2582,-0.3873 -0.11065,-0.29508 -0.11065,-0.55328 0,-0.44262 0.33197,-0.77459 0.33197,-0.33197 0.97746,-0.44263 0.29508,-0.0369 0.44263,-0.0369 1.10656,0 1.71517,1.03279 z" />
    <path
       inkscape:connector-curvature="0"
       id="path1060"
       style="font-style:normal;font-variant:normal;font-weight:normal;font-stretch:normal;font-size:medium;line-height:1.25;font-family:Storybook;-inkscape-font-specification:Storybook;text-align:center;letter-spacing:0px;word-spacing:0px;text-anchor:middle;fill:#000000;fill-opacity:1;stroke:none;stroke-width:0.46106765"
       d="m 163.89535,274.31884 q 0.0922,0.36885 0.0922,0.68238 0,0.44262 -0.18443,0.95902 -0.38729,1.06967 -1.14344,1.6414 -0.73771,0.57172 -1.8996,0.57172 h -0.42418 v 1.45698 1.43853 l 0.0369,1.49386 0.0184,0.25819 0.0738,1.18034 q 0,1.18033 0.23976,1.69673 0.23976,0.51639 1.03279,1.19877 l 0.2582,0.20287 -0.35041,0.95902 -0.2582,-0.0738 -0.33197,-0.11065 -0.2582,-0.0738 -0.35041,-0.0922 q -0.90369,-0.23975 -1.69673,-0.23975 -0.36885,0 -0.81148,0.0553 l -0.90369,0.0922 q -0.77459,0.0922 -1.05123,0.14754 -0.27664,0.0738 -0.73771,0.27664 l -0.49795,-0.97746 q 1.10656,-0.53484 1.30943,-1.73362 0.22131,-1.19877 0.22131,-6.08609 l -0.0553,-0.90369 -0.0184,-0.22132 -0.0553,-0.49795 q -0.16598,-0.0553 -0.31352,-0.0922 -0.1291,-0.0553 -0.36886,-0.0922 -0.23975,-0.0553 -0.64549,-0.0738 -0.3873,-0.0184 -0.70083,-0.0184 -0.95902,0 -1.45697,0.27664 -0.49795,0.27664 -0.66394,0.71927 -0.14754,0.42418 -0.14754,0.7377 0,0.2582 0.0922,0.44263 0.20287,0.40574 0.6455,0.40574 0.18443,0 0.3873,-0.11066 0.20287,-0.1291 0.20287,-0.42418 0,-0.0922 -0.0738,-0.23975 -0.14754,-0.23976 -0.44262,-0.23976 0.0738,-0.2582 0.31353,-0.46107 0.31352,-0.25819 0.79303,-0.25819 0.20287,0 0.53484,0.0369 0.33197,0.0369 0.6455,0.40574 0.33196,0.35041 0.33196,0.90369 0,0.35041 -0.12909,0.71927 -0.20287,0.59016 -0.66394,0.92213 -0.46107,0.31353 -1.21722,0.31353 -0.95902,0 -1.60452,-0.59017 -0.64549,-0.60861 -0.88525,-1.80738 -0.0738,-0.35041 -0.0738,-0.79304 0,-0.22131 0.0185,-0.33197 0.22131,-1.80738 1.47541,-2.69263 1.34632,-0.94058 4.03895,-0.94058 0.62706,0 0.86681,0.0184 0.2582,0.0184 1.06968,0.1291 l 0.46107,0.0738 0.94057,0.1291 0.55329,0.0738 q 0.64549,0.0553 1.14344,0.0553 1.40165,0 2.61887,-0.49795 z" />
    <path
       inkscape:connector-curvature="0"
       id="path1062"
       style="font-style:normal;font-variant:normal;font-weight:normal;font-stretch:normal;font-size:medium;line-height:1.25;font-family:Storybook;-inkscape-font-specification:Storybook;text-align:center;letter-spacing:0px;word-spacing:0px;text-anchor:middle;fill:#000000;fill-opacity:1;stroke:none;stroke-width:0.46106765"
       d="m 172.58753,282.13854 -1.29099,0.27664 -2.95084,0.66394 -0.84836,0.20287 -0.53484,0.1291 -0.81148,0.18443 v 0.53484 q 0,1.47541 0.49795,2.21312 0.44263,0.66394 1.21722,0.66394 0.1291,-0.0184 0.18443,-0.0184 0.62705,-0.0738 0.99591,-0.5164 0.38729,-0.46107 0.38729,-1.29099 0,-0.86681 -0.51639,-1.36476 0.51639,-0.47951 1.30943,-0.47951 0.64549,0 1.42009,0.35041 1.03279,0.49795 1.03279,1.54919 0,0.84836 -0.75615,1.67829 -0.42418,0.46106 -1.05124,0.70082 -0.62705,0.23975 -1.75205,0.35041 -0.1291,0.0184 -0.23976,0.0184 -0.1291,0 -0.18443,0 -0.18442,0 -0.38729,-0.0184 -0.18443,0 -0.3873,0 -2.54509,0 -4.05739,-1.30943 -1.49386,-1.32788 -1.49386,-3.31969 0,-1.42009 0.36885,-2.43444 0.3873,-1.01435 1.29099,-1.78894 1.40165,-1.29099 3.4119,-1.29099 0.68238,0 1.40165,0.16599 1.19877,0.27664 1.91804,0.79303 0.73771,0.49795 1.27254,1.43853 0.27665,0.47951 0.40574,0.94058 0.14755,0.46107 0.14755,0.97746 z m -3.61477,-1.84427 q -0.0369,-0.40574 -0.1291,-0.62705 -0.0738,-0.23975 -0.23976,-0.46107 -0.14754,-0.22131 -0.35041,-0.31352 -0.18443,-0.0922 -0.40574,-0.0922 -0.49795,0 -0.88525,0.47951 -0.23975,0.31353 -0.3873,0.68238 -0.1291,0.35042 -0.22131,0.94058 l -0.1291,0.81148 -0.11065,0.7746 2.28689,-0.53484 q 0.27664,-0.0553 0.44263,-0.33197 0.16598,-0.29508 0.16598,-0.84837 0,-0.11065 -0.0184,-0.25819 -0.0184,-0.14755 -0.0184,-0.22132 z" />
    <path
       inkscape:connector-curvature="0"
       id="path1064"
       style="font-style:normal;font-variant:normal;font-weight:normal;font-stretch:normal;font-size:medium;line-height:1.25;font-family:Storybook;-inkscape-font-specification:Storybook;text-align:center;letter-spacing:0px;word-spacing:0px;text-anchor:middle;fill:#000000;fill-opacity:1;stroke:none;stroke-width:0.46106765"
       d="m 178.95546,275.05654 q -0.47951,0.42419 -0.70082,0.94058 -0.22132,0.5164 -0.3873,1.60452 -0.0369,0.36885 -0.0553,1.14345 -0.0184,0.77459 -0.0184,2.30533 v 0.99591 q 0,1.06968 0.0369,1.67829 0.0369,0.59016 0.0738,0.92213 0.14755,1.25411 0.27664,1.65985 0.1291,0.40574 0.55329,0.90369 l 0.20287,0.22131 -0.3873,0.62705 q -0.79304,-0.36885 -1.91804,-0.47951 -0.68238,0 -1.36476,0 -0.88525,0.0369 -1.51231,0.35041 l -0.44262,-0.59016 q 0.47951,-0.36886 0.68238,-0.81148 0.20287,-0.46107 0.40574,-1.73362 0.0553,-0.29508 0.0922,-0.62705 0.0369,-0.35041 0.0369,-0.71926 v -0.23976 -0.77459 l -0.0184,-1.34632 -0.0185,-0.75615 -0.0738,-1.80739 q -0.1291,-1.53074 -0.36885,-2.17624 -0.22131,-0.66393 -0.79304,-1.23566 l 0.35041,-0.73771 q 0.44263,0.20287 0.82992,0.31353 0.3873,0.0922 0.99591,0.0922 0.3873,0 0.55328,0 1.05124,0 1.53075,-0.0553 0.49795,-0.0738 0.9959,-0.33197 z" />
    <path
       inkscape:connector-curvature="0"
       id="path1066"
       style="font-style:normal;font-variant:normal;font-weight:normal;font-stretch:normal;font-size:medium;line-height:1.25;font-family:Storybook;-inkscape-font-specification:Storybook;text-align:center;letter-spacing:0px;word-spacing:0px;text-anchor:middle;fill:#000000;fill-opacity:1;stroke:none;stroke-width:0.46106765"
       d="m 189.7695,282.13854 -1.29099,0.27664 -2.95083,0.66394 -0.84836,0.20287 -0.53484,0.1291 -0.81148,0.18443 v 0.53484 q 0,1.47541 0.49795,2.21312 0.44263,0.66394 1.21722,0.66394 0.1291,-0.0184 0.18443,-0.0184 0.62705,-0.0738 0.9959,-0.5164 0.3873,-0.46107 0.3873,-1.29099 0,-0.86681 -0.5164,-1.36476 0.5164,-0.47951 1.30944,-0.47951 0.64549,0 1.42008,0.35041 1.0328,0.49795 1.0328,1.54919 0,0.84836 -0.75616,1.67829 -0.42418,0.46106 -1.05123,0.70082 -0.62705,0.23975 -1.75206,0.35041 -0.1291,0.0184 -0.23975,0.0184 -0.1291,0 -0.18443,0 -0.18443,0 -0.3873,-0.0184 -0.18442,0 -0.38729,0 -2.5451,0 -4.0574,-1.30943 -1.49386,-1.32788 -1.49386,-3.31969 0,-1.42009 0.36886,-2.43444 0.38729,-1.01435 1.29099,-1.78894 1.40164,-1.29099 3.4119,-1.29099 0.68238,0 1.40164,0.16599 1.19878,0.27664 1.91804,0.79303 0.73771,0.49795 1.27255,1.43853 0.27664,0.47951 0.40574,0.94058 0.14754,0.46107 0.14754,0.97746 z m -3.61477,-1.84427 q -0.0369,-0.40574 -0.1291,-0.62705 -0.0738,-0.23975 -0.23975,-0.46107 -0.14754,-0.22131 -0.35041,-0.31352 -0.18443,-0.0922 -0.40574,-0.0922 -0.49796,0 -0.88525,0.47951 -0.23976,0.31353 -0.3873,0.68238 -0.1291,0.35042 -0.22131,0.94058 l -0.1291,0.81148 -0.11066,0.7746 2.2869,-0.53484 q 0.27664,-0.0553 0.44262,-0.33197 0.16599,-0.29508 0.16599,-0.84837 0,-0.11065 -0.0185,-0.25819 -0.0184,-0.14755 -0.0184,-0.22132 z" />
    <path
       inkscape:connector-curvature="0"
       id="path1070"
       style="font-style:normal;font-variant:normal;font-weight:normal;font-stretch:normal;font-size:medium;line-height:1.25;font-family:Storybook;-inkscape-font-specification:Storybook;text-align:center;letter-spacing:0px;word-spacing:0px;text-anchor:middle;fill:#000000;fill-opacity:1;stroke:none;stroke-width:0.46106765"
       d="m 211.20339,280.4787 q 0,0.53484 -0.18443,0.99591 -0.18443,0.44262 -0.68238,0.95902 -0.47951,0.49795 -0.47951,0.88525 0,0.2582 0.2582,0.55328 -0.33197,0.22131 -0.75615,0.22131 -0.46107,0 -0.94058,-0.29508 -0.40574,-0.22131 -0.68238,-0.7746 -0.2582,-0.55328 -0.2582,-0.97746 0,-0.68238 0.84837,-1.82583 0.12909,-0.14754 0.16598,-0.53484 v -0.27664 q 0,-0.33197 -0.29508,-0.59016 -0.18443,-0.18443 -0.46107,-0.18443 -0.35041,0 -0.57173,0.27664 -0.22131,0.27664 -0.31352,0.55328 -0.0922,0.27664 -0.20287,0.94058 l -0.0553,0.49795 q -0.0369,0.33197 -0.0553,0.84837 -0.0184,0.51639 -0.0184,0.70082 0,2.23157 0.29508,3.22747 0.29509,0.99591 1.06968,1.80739 l -0.55328,0.5164 q -0.5164,-0.18443 -1.05124,-0.27665 -0.53483,-0.11065 -1.10656,-0.11065 -1.23566,0 -1.6414,0.0738 -0.40574,0.0553 -0.92213,0.33197 l -0.33197,-0.71927 q 0.59016,-0.64549 0.81148,-1.36476 0.22131,-0.71926 0.22131,-2.19468 0,-0.29508 -0.0184,-0.60861 0,-0.33197 0,-0.68238 0,-0.14754 0,-0.22131 0,-1.67829 -0.23976,-2.43444 -0.22131,-0.77459 -0.77459,-1.3832 l 0.31352,-0.59017 0.40574,0.1291 q 0.84837,0.23976 1.43853,0.23976 0.42419,0 1.30944,-0.14755 1.42008,-0.23975 1.95492,-0.23975 0.7746,0 1.23566,0.0922 0.47952,0.0922 0.82993,0.31353 0.79303,0.47951 1.10656,0.97746 0.33197,0.49795 0.33197,1.29099 z" />
    <path
       inkscape:connector-curvature="0"
       id="path1072"
       style="font-style:normal;font-variant:normal;font-weight:normal;font-stretch:normal;font-size:medium;line-height:1.25;font-family:Storybook;-inkscape-font-specification:Storybook;text-align:center;letter-spacing:0px;word-spacing:0px;text-anchor:middle;fill:#000000;fill-opacity:1;stroke:none;stroke-width:0.46106765"
       d="m 222.85659,287.45004 -0.49795,0.70083 q -0.57173,-0.31353 -1.25411,-0.42419 -0.66393,-0.11065 -1.73361,-0.11065 l -0.57172,0.0369 -0.20287,0.0184 -1.0328,0.1291 -0.51639,0.0553 q -0.23976,0 -0.36886,0 -0.77459,0 -1.10656,-0.0369 -0.33197,-0.0184 -0.75615,-0.1291 -1.21722,-0.35041 -1.8996,-0.97746 -0.42418,-0.3873 -0.68238,-0.81148 -0.23975,-0.42419 -0.35041,-0.9037 -0.11066,-0.49795 -0.11066,-0.92213 0,-1.75206 1.93649,-2.65575 0.62705,-0.29508 1.53074,-0.36886 0.11066,0 0.27664,-0.0184 0.18443,-0.0184 0.33197,-0.0184 0.66394,0 1.21722,0.20287 0.55328,0.18443 1.21722,0.64549 l 0.29508,0.20287 -0.0184,-1.06967 v -0.14755 l -0.0369,-0.7377 -0.0369,-0.6455 q -0.0553,-0.70082 -0.66394,-0.70082 -0.1291,0 -0.23975,0.0553 -0.33197,0.14754 -0.60861,0.42418 -0.0553,0.0553 -0.57173,0.62705 l -0.25819,0.23976 q -0.71927,0.57172 -1.36476,0.57172 -0.1291,-0.0184 -0.20287,-0.0184 -0.79304,-0.0738 -1.27255,-0.60861 -0.47951,-0.55328 -0.47951,-1.40165 0,-0.20287 0,-0.40574 0.0553,-0.20287 0.0738,-0.27664 l 0.16598,-0.49795 q 0.71927,0.70082 1.93649,0.70082 0.38729,0 0.92213,-0.0553 l 0.5164,-0.0738 q 0.64549,-0.11065 1.05123,-0.14754 0.42419,-0.0553 0.6455,-0.0553 2.06558,0 2.8955,1.06968 0.84837,1.05123 0.84837,3.46723 l -0.0185,0.55328 q 0,0.75615 -0.0369,1.29099 -0.0369,0.53484 -0.0184,0.68238 0,1.14345 0.23975,1.67829 0.23976,0.51639 0.81148,0.8668 z m -4.59223,-3.17214 q 0,-0.59017 -0.1291,-0.95902 -0.11066,-0.3873 -0.33197,-0.60861 -0.3873,-0.3873 -0.84837,-0.3873 -0.59016,0 -0.88525,0.57173 -0.18442,0.33196 -0.27664,0.66393 -0.0922,0.31353 -0.0922,0.86681 -0.0184,0.14754 -0.0184,0.29508 0,0.14754 0,0.22132 0,0.29508 0.0184,0.40574 0.0922,0.77459 0.42418,1.21721 0.33197,0.42419 0.82992,0.42419 0.62706,0 0.95903,-0.60861 0.35041,-0.62706 0.35041,-2.10247 z" />
    <path
       inkscape:connector-curvature="0"
       id="path1076"
       style="font-style:normal;font-variant:normal;font-weight:normal;font-stretch:normal;font-size:medium;line-height:1.25;font-family:Storybook;-inkscape-font-specification:Storybook;text-align:center;letter-spacing:0px;word-spacing:0px;text-anchor:middle;fill:#000000;fill-opacity:1;stroke:none;stroke-width:0.46106765"
       d="m 245.41673,287.26562 q -0.38729,0.90369 -1.75205,0.90369 -0.42419,0 -0.95903,-0.11066 -0.51639,-0.11065 -1.01434,-0.46106 -0.47951,-0.35042 -0.88525,-0.95903 -0.71927,-0.9959 -0.71927,-2.08402 0,-1.10656 0.77459,-2.416 l 0.18443,-0.33196 q 0.23976,-0.47951 0.40574,-0.86681 0.18443,-0.40574 0.18443,-0.73771 0,-0.42418 -0.27664,-0.68238 -0.27664,-0.2582 -0.68238,-0.2582 -0.18443,0 -0.29509,0.0369 -0.57172,0.16598 -0.95902,0.82992 -0.14754,0.27664 -0.22131,0.57172 -0.0738,0.29509 -0.0738,0.7746 l -0.0369,0.66393 -0.0184,0.27664 v 0.46107 q 0,1.06968 0.11066,1.95493 0.11065,0.86681 0.2582,1.27255 0.16598,0.40574 0.68238,1.05123 l 0.20287,0.2582 -0.31353,0.57172 q -0.53484,-0.20287 -0.92214,-0.29508 -0.38729,-0.11066 -0.81148,-0.11066 -1.27254,0 -1.97337,0.0369 -0.68238,0.0369 -1.40164,0.36885 l -0.31353,-0.64549 q 0.23976,-0.23976 0.42419,-0.5164 0.18442,-0.27664 0.36885,-0.71926 0.18443,-0.46107 0.23975,-0.84837 0.0553,-0.3873 0.0553,-1.36476 v -1.54919 -0.46106 -0.40574 l -0.0184,-0.59017 -0.0369,-0.97746 q 0,-2.01026 -0.33196,-3.13526 -0.2582,-0.9037 -0.9037,-1.65985 l 0.40574,-0.64549 q 1.03279,0.33197 2.1578,0.33197 0.79304,0 1.67829,-0.16599 l 0.71926,-0.16598 0.53484,0.60861 q -0.47951,0.49795 -0.66394,0.97746 -0.18442,0.47951 -0.18442,1.42009 l -0.0738,1.08812 v 0.20287 l 0.60861,-0.29508 q 0.75616,-0.33197 1.19878,-0.44263 0.46107,-0.1291 0.95902,-0.1291 1.08812,0 2.01026,0.55328 0.92213,0.55328 1.3832,1.40165 0.40574,0.77459 0.40574,1.40164 0,0.75616 -0.57173,1.58608 -0.57172,0.81148 -1.88115,1.97337 l -0.20287,0.20287 q -0.23976,0.18442 -0.44263,0.66393 -0.0738,0.14755 -0.0738,0.35042 -0.0553,0.47951 0.18443,0.81147 0.16598,0.22132 0.44262,0.22132 0.1291,0 0.23976,-0.0553 0.3873,-0.18443 0.3873,-0.62705 0,-0.23976 -0.18443,-0.44263 -0.16598,-0.22131 -0.46107,-0.29508 0.14754,-0.73771 0.99591,-0.73771 0.40574,0 0.84836,0.18443 0.79304,0.31352 0.79304,1.29099 0,0.44262 -0.18443,0.88525 z" />
    <circle
       style="fill:#000000;fill-opacity:1;stroke:none;stroke-width:0.08899999;stroke-linecap:round;stroke-linejoin:round;stroke-miterlimit:4;stroke-dasharray:none"
       id="path925"
       cx="11.90625"
       cy="290.38541"
       r="0.52916664" />
    <path
       style="fill:#000000;fill-opacity:1;stroke:none;stroke-width:0.08899999;stroke-linecap:round;stroke-linejoin:round;stroke-miterlimit:4;stroke-dasharray:none"
       d="M 13.229167,289.85623 A 0.52916663,0.52916663 0 0 0 12.7,290.3854 a 0.52916663,0.52916663 0 0 0 0.529167,0.52917 H 15.875 A 0.52916663,0.52916663 0 0 0 16.404167,290.3854 0.52916663,0.52916663 0 0 0 15.875,289.85623 Z"
       id="circle929"
       inkscape:connector-curvature="0" />
    <circle
       r="0.52916664"
       cy="290.38541"
       cx="22.489584"
       id="circle936"
       style="fill:#000000;fill-opacity:1;stroke:none;stroke-width:0.08899999;stroke-linecap:round;stroke-linejoin:round;stroke-miterlimit:4;stroke-dasharray:none" />
    <path
       id="path938"
       d="m 23.812499,289.85623 a 0.52916663,0.52916663 0 0 0 -0.529166,0.52917 0.52916663,0.52916663 0 0 0 0.529166,0.52917 h 2.645833 a 0.52916663,0.52916663 0 0 0 0.529167,-0.52917 0.52916663,0.52916663 0 0 0 -0.529167,-0.52917 z"
       style="fill:#000000;fill-opacity:1;stroke:none;stroke-width:0.08899999;stroke-linecap:round;stroke-linejoin:round;stroke-miterlimit:4;stroke-dasharray:none"
       inkscape:connector-curvature="0" />
    <circle
       style="fill:#000000;fill-opacity:1;stroke:none;stroke-width:0.08899999;stroke-linecap:round;stroke-linejoin:round;stroke-miterlimit:4;stroke-dasharray:none"
       id="circle940"
       cx="27.781252"
       cy="290.38541"
       r="0.52916664" />
    <circle
       r="0.52916664"
       cy="290.38541"
       cx="29.104168"
       id="circle942"
       style="fill:#000000;fill-opacity:1;stroke:none;stroke-width:0.08899999;stroke-linecap:round;stroke-linejoin:round;stroke-miterlimit:4;stroke-dasharray:none" />
    <path
       inkscape:connector-curvature="0"
       style="fill:#000000;fill-opacity:1;stroke:none;stroke-width:0.08899999;stroke-linecap:round;stroke-linejoin:round;stroke-miterlimit:4;stroke-dasharray:none"
       d="m 31.749999,289.85623 a 0.52916663,0.52916663 0 0 0 -0.529166,0.52917 0.52916663,0.52916663 0 0 0 0.529166,0.52917 h 2.645833 a 0.52916663,0.52916663 0 0 0 0.529167,-0.52917 0.52916663,0.52916663 0 0 0 -0.529167,-0.52917 z"
       id="path944" />
    <path
       inkscape:connector-curvature="0"
       style="fill:#000000;fill-opacity:1;stroke:none;stroke-width:0.08899999;stroke-linecap:round;stroke-linejoin:round;stroke-miterlimit:4;stroke-dasharray:none"
       d="m 41.010416,289.85623 a 0.52916663,0.52916663 0 0 0 -0.529166,0.52917 0.52916663,0.52916663 0 0 0 0.529166,0.52917 h 2.645833 a 0.52916663,0.52916663 0 0 0 0.529167,-0.52917 0.52916663,0.52916663 0 0 0 -0.529167,-0.52917 z"
       id="path946" />
    <circle
       r="0.52916664"
       cy="290.38541"
       cx="44.979164"
       id="circle948"
       style="fill:#000000;fill-opacity:1;stroke:none;stroke-width:0.08899999;stroke-linecap:round;stroke-linejoin:round;stroke-miterlimit:4;stroke-dasharray:none" />
    <circle
       style="fill:#000000;fill-opacity:1;stroke:none;stroke-width:0.08899999;stroke-linecap:round;stroke-linejoin:round;stroke-miterlimit:4;stroke-dasharray:none"
       id="circle950"
       cx="46.302082"
       cy="290.38541"
       r="0.52916664" />
    <path
       id="path952"
       d="m 50.270832,289.85623 a 0.52916663,0.52916663 0 0 0 -0.529166,0.52917 0.52916663,0.52916663 0 0 0 0.529166,0.52917 h 2.645833 a 0.52916663,0.52916663 0 0 0 0.529167,-0.52917 0.52916663,0.52916663 0 0 0 -0.529167,-0.52917 z"
       style="fill:#000000;fill-opacity:1;stroke:none;stroke-width:0.08899999;stroke-linecap:round;stroke-linejoin:round;stroke-miterlimit:4;stroke-dasharray:none"
       inkscape:connector-curvature="0" />
    <path
       inkscape:connector-curvature="0"
       style="fill:#000000;fill-opacity:1;stroke:none;stroke-width:0.08899999;stroke-linecap:round;stroke-linejoin:round;stroke-miterlimit:4;stroke-dasharray:none"
       d="m 54.239582,289.85623 a 0.52916663,0.52916663 0 0 0 -0.529166,0.52917 0.52916663,0.52916663 0 0 0 0.529166,0.52917 h 2.645833 a 0.52916663,0.52916663 0 0 0 0.529167,-0.52917 0.52916663,0.52916663 0 0 0 -0.529167,-0.52917 z"
       id="path954" />
    <path
       id="path956"
       d="m 58.208332,289.85623 a 0.52916663,0.52916663 0 0 0 -0.529166,0.52917 0.52916663,0.52916663 0 0 0 0.529166,0.52917 h 2.645833 a 0.52916663,0.52916663 0 0 0 0.529167,-0.52917 0.52916663,0.52916663 0 0 0 -0.529167,-0.52917 z"
       style="fill:#000000;fill-opacity:1;stroke:none;stroke-width:0.08899999;stroke-linecap:round;stroke-linejoin:round;stroke-miterlimit:4;stroke-dasharray:none"
       inkscape:connector-curvature="0" />
    <path
       id="path958"
       d="m 64.822915,289.85623 a 0.52916663,0.52916663 0 0 0 -0.529166,0.52917 0.52916663,0.52916663 0 0 0 0.529166,0.52917 h 2.645833 a 0.52916663,0.52916663 0 0 0 0.529167,-0.52917 0.52916663,0.52916663 0 0 0 -0.529167,-0.52917 z"
       style="fill:#000000;fill-opacity:1;stroke:none;stroke-width:0.08899999;stroke-linecap:round;stroke-linejoin:round;stroke-miterlimit:4;stroke-dasharray:none"
       inkscape:connector-curvature="0" />
    <circle
       style="fill:#000000;fill-opacity:1;stroke:none;stroke-width:0.08899999;stroke-linecap:round;stroke-linejoin:round;stroke-miterlimit:4;stroke-dasharray:none"
       id="circle960"
       cx="63.499996"
       cy="290.38541"
       r="0.52916664" />
    <circle
       r="0.52916664"
       cy="290.38541"
       cx="68.791672"
       id="circle962"
       style="fill:#000000;fill-opacity:1;stroke:none;stroke-width:0.08899999;stroke-linecap:round;stroke-linejoin:round;stroke-miterlimit:4;stroke-dasharray:none" />
    <circle
       style="fill:#000000;fill-opacity:1;stroke:none;stroke-width:0.08899999;stroke-linecap:round;stroke-linejoin:round;stroke-miterlimit:4;stroke-dasharray:none"
       id="circle964"
       cx="72.760422"
       cy="290.38541"
       r="0.52916664" />
    <path
       inkscape:connector-curvature="0"
       style="fill:#000000;fill-opacity:1;stroke:none;stroke-width:0.08899999;stroke-linecap:round;stroke-linejoin:round;stroke-miterlimit:4;stroke-dasharray:none"
       d="m 75.406243,289.85622 a 0.52916663,0.52916663 0 0 0 -0.529166,0.52917 0.52916663,0.52916663 0 0 0 0.529166,0.52917 h 2.645833 a 0.52916663,0.52916663 0 0 0 0.529167,-0.52917 0.52916663,0.52916663 0 0 0 -0.529167,-0.52917 z"
       id="path966" />
    <circle
       r="0.52916664"
       cy="290.38541"
       cx="74.083336"
       id="circle968"
       style="fill:#000000;fill-opacity:1;stroke:none;stroke-width:0.08899999;stroke-linecap:round;stroke-linejoin:round;stroke-miterlimit:4;stroke-dasharray:none" />
    <circle
       style="fill:#000000;fill-opacity:1;stroke:none;stroke-width:0.08899999;stroke-linecap:round;stroke-linejoin:round;stroke-miterlimit:4;stroke-dasharray:none"
       id="circle970"
       cx="79.375"
       cy="290.38541"
       r="0.52916664" />
    <circle
       r="0.52916664"
       cy="290.38541"
       cx="92.604164"
       id="circle976"
       style="fill:#000000;fill-opacity:1;stroke:none;stroke-width:0.08899999;stroke-linecap:round;stroke-linejoin:round;stroke-miterlimit:4;stroke-dasharray:none" />
    <circle
       style="fill:#000000;fill-opacity:1;stroke:none;stroke-width:0.08899999;stroke-linecap:round;stroke-linejoin:round;stroke-miterlimit:4;stroke-dasharray:none"
       id="circle980"
       cx="93.927078"
       cy="290.38541"
       r="0.52916664" />
    <circle
       r="0.52916664"
       cy="290.38541"
       cx="95.249992"
       id="circle982"
       style="fill:#000000;fill-opacity:1;stroke:none;stroke-width:0.08899999;stroke-linecap:round;stroke-linejoin:round;stroke-miterlimit:4;stroke-dasharray:none" />
    <path
       inkscape:connector-curvature="0"
       style="fill:#000000;fill-opacity:1;stroke:none;stroke-width:0.08899999;stroke-linecap:round;stroke-linejoin:round;stroke-miterlimit:4;stroke-dasharray:none"
       d="m 113.77083,289.85623 a 0.52916663,0.52916663 0 0 0 -0.52917,0.52917 0.52916663,0.52916663 0 0 0 0.52917,0.52917 h 2.64583 a 0.52916663,0.52916663 0 0 0 0.52917,-0.52917 0.52916663,0.52916663 0 0 0 -0.52917,-0.52917 z"
       id="path984" />
    <path
       id="path986"
       d="m 117.73958,289.85623 a 0.52916663,0.52916663 0 0 0 -0.52917,0.52917 0.52916663,0.52916663 0 0 0 0.52917,0.52917 h 2.64583 a 0.52916663,0.52916663 0 0 0 0.52917,-0.52917 0.52916663,0.52916663 0 0 0 -0.52917,-0.52917 z"
       style="fill:#000000;fill-opacity:1;stroke:none;stroke-width:0.08899999;stroke-linecap:round;stroke-linejoin:round;stroke-miterlimit:4;stroke-dasharray:none"
       inkscape:connector-curvature="0" />
    <path
       inkscape:connector-curvature="0"
       style="fill:#000000;fill-opacity:1;stroke:none;stroke-width:0.08899999;stroke-linecap:round;stroke-linejoin:round;stroke-miterlimit:4;stroke-dasharray:none"
       d="m 121.70833,289.85623 a 0.52916663,0.52916663 0 0 0 -0.52917,0.52917 0.52916663,0.52916663 0 0 0 0.52917,0.52917 h 2.64583 a 0.52916663,0.52916663 0 0 0 0.52917,-0.52917 0.52916663,0.52916663 0 0 0 -0.52917,-0.52917 z"
       id="path988" />
    <path
       inkscape:connector-curvature="0"
       style="fill:#000000;fill-opacity:1;stroke:none;stroke-width:0.08899999;stroke-linecap:round;stroke-linejoin:round;stroke-miterlimit:4;stroke-dasharray:none"
       d="m 128.32291,289.85623 a 0.52916663,0.52916663 0 0 0 -0.52917,0.52917 0.52916663,0.52916663 0 0 0 0.52917,0.52917 h 2.64583 a 0.52916663,0.52916663 0 0 0 0.52917,-0.52917 0.52916663,0.52916663 0 0 0 -0.52917,-0.52917 z"
       id="path990" />
    <circle
       r="0.52916664"
       cy="290.38541"
       cx="126.99998"
       id="circle992"
       style="fill:#000000;fill-opacity:1;stroke:none;stroke-width:0.08899999;stroke-linecap:round;stroke-linejoin:round;stroke-miterlimit:4;stroke-dasharray:none" />
    <circle
       style="fill:#000000;fill-opacity:1;stroke:none;stroke-width:0.08899999;stroke-linecap:round;stroke-linejoin:round;stroke-miterlimit:4;stroke-dasharray:none"
       id="circle994"
       cx="132.29166"
       cy="290.38541"
       r="0.52916664" />
    <path
       id="path996"
       d="m 137.58333,289.85623 a 0.52916663,0.52916663 0 0 0 -0.52917,0.52917 0.52916663,0.52916663 0 0 0 0.52917,0.52917 h 2.64583 a 0.52916663,0.52916663 0 0 0 0.52917,-0.52917 0.52916663,0.52916663 0 0 0 -0.52917,-0.52917 z"
       style="fill:#000000;fill-opacity:1;stroke:none;stroke-width:0.08899999;stroke-linecap:round;stroke-linejoin:round;stroke-miterlimit:4;stroke-dasharray:none"
       inkscape:connector-curvature="0" />
    <path
       inkscape:connector-curvature="0"
       style="fill:#000000;fill-opacity:1;stroke:none;stroke-width:0.08899999;stroke-linecap:round;stroke-linejoin:round;stroke-miterlimit:4;stroke-dasharray:none"
       d="m 157.42708,289.85623 a 0.52916663,0.52916663 0 0 0 -0.52917,0.52917 0.52916663,0.52916663 0 0 0 0.52917,0.52917 h 2.64583 a 0.52916663,0.52916663 0 0 0 0.52917,-0.52917 0.52916663,0.52916663 0 0 0 -0.52917,-0.52917 z"
       id="path998" />
    <circle
       r="0.52916664"
       cy="290.38541"
       cx="168.01041"
       id="circle1000"
       style="fill:#000000;fill-opacity:1;stroke:none;stroke-width:0.08899999;stroke-linecap:round;stroke-linejoin:round;stroke-miterlimit:4;stroke-dasharray:none" />
    <circle
       style="fill:#000000;fill-opacity:1;stroke:none;stroke-width:0.08899999;stroke-linecap:round;stroke-linejoin:round;stroke-miterlimit:4;stroke-dasharray:none"
       id="circle1002"
       cx="173.30208"
       cy="290.38541"
       r="0.52916664" />
    <path
       id="path1004"
       d="m 174.62499,289.85623 a 0.52916663,0.52916663 0 0 0 -0.52917,0.52917 0.52916663,0.52916663 0 0 0 0.52917,0.52917 h 2.64583 a 0.52916663,0.52916663 0 0 0 0.52917,-0.52917 0.52916663,0.52916663 0 0 0 -0.52917,-0.52917 z"
       style="fill:#000000;fill-opacity:1;stroke:none;stroke-width:0.08899999;stroke-linecap:round;stroke-linejoin:round;stroke-miterlimit:4;stroke-dasharray:none"
       inkscape:connector-curvature="0" />
    <circle
       style="fill:#000000;fill-opacity:1;stroke:none;stroke-width:0.08899999;stroke-linecap:round;stroke-linejoin:round;stroke-miterlimit:4;stroke-dasharray:none"
       id="circle1006"
       cx="178.59373"
       cy="290.38541"
       r="0.52916664" />
    <circle
       r="0.52916664"
       cy="290.38541"
       cx="179.91666"
       id="circle1008"
       style="fill:#000000;fill-opacity:1;stroke:none;stroke-width:0.08899999;stroke-linecap:round;stroke-linejoin:round;stroke-miterlimit:4;stroke-dasharray:none" />
    <circle
       style="fill:#000000;fill-opacity:1;stroke:none;stroke-width:0.08899999;stroke-linecap:round;stroke-linejoin:round;stroke-miterlimit:4;stroke-dasharray:none"
       id="circle1010"
       cx="185.20833"
       cy="290.38541"
       r="0.52916664" />
    <path
       id="path1012"
       d="m 205.05208,289.85623 a 0.52916663,0.52916663 0 0 0 -0.52917,0.52917 0.52916663,0.52916663 0 0 0 0.52917,0.52917 h 2.64583 a 0.52916663,0.52916663 0 0 0 0.52917,-0.52917 0.52916663,0.52916663 0 0 0 -0.52917,-0.52917 z"
       style="fill:#000000;fill-opacity:1;stroke:none;stroke-width:0.08899999;stroke-linecap:round;stroke-linejoin:round;stroke-miterlimit:4;stroke-dasharray:none"
       inkscape:connector-curvature="0" />
    <circle
       style="fill:#000000;fill-opacity:1;stroke:none;stroke-width:0.08899999;stroke-linecap:round;stroke-linejoin:round;stroke-miterlimit:4;stroke-dasharray:none"
       id="circle1014"
       cx="203.72916"
       cy="290.38541"
       r="0.52916664" />
    <circle
       r="0.52916664"
       cy="290.38541"
       cx="209.02083"
       id="circle1016"
       style="fill:#000000;fill-opacity:1;stroke:none;stroke-width:0.08899999;stroke-linecap:round;stroke-linejoin:round;stroke-miterlimit:4;stroke-dasharray:none" />
    <path
       inkscape:connector-curvature="0"
       style="fill:#000000;fill-opacity:1;stroke:none;stroke-width:0.08899999;stroke-linecap:round;stroke-linejoin:round;stroke-miterlimit:4;stroke-dasharray:none"
       d="m 215.63541,289.85623 a 0.52916663,0.52916663 0 0 0 -0.52917,0.52917 0.52916663,0.52916663 0 0 0 0.52917,0.52917 h 2.64583 a 0.52916663,0.52916663 0 0 0 0.52917,-0.52917 0.52916663,0.52916663 0 0 0 -0.52917,-0.52917 z"
       id="path1018" />
    <circle
       r="0.52916664"
       cy="290.38541"
       cx="214.31248"
       id="circle1020"
       style="fill:#000000;fill-opacity:1;stroke:none;stroke-width:0.08899999;stroke-linecap:round;stroke-linejoin:round;stroke-miterlimit:4;stroke-dasharray:none" />
    <circle
       style="fill:#000000;fill-opacity:1;stroke:none;stroke-width:0.08899999;stroke-linecap:round;stroke-linejoin:round;stroke-miterlimit:4;stroke-dasharray:none"
       id="circle1022"
       cx="238.12498"
       cy="290.38541"
       r="0.52916664" />
    <circle
       r="0.52916664"
       cy="290.38541"
       cx="239.44791"
       id="circle1024"
       style="fill:#000000;fill-opacity:1;stroke:none;stroke-width:0.08899999;stroke-linecap:round;stroke-linejoin:round;stroke-miterlimit:4;stroke-dasharray:none" />
    <circle
       style="fill:#000000;fill-opacity:1;stroke:none;stroke-width:0.08899999;stroke-linecap:round;stroke-linejoin:round;stroke-miterlimit:4;stroke-dasharray:none"
       id="circle1026"
       cx="240.77083"
       cy="290.38541"
       r="0.52916664" />
    <circle
       r="0.52916664"
       cy="290.38541"
       cx="242.09373"
       id="circle1028"
       style="fill:#000000;fill-opacity:1;stroke:none;stroke-width:0.08899999;stroke-linecap:round;stroke-linejoin:round;stroke-miterlimit:4;stroke-dasharray:none" />
    <circle
       style="fill:#000000;fill-opacity:1;stroke:none;stroke-width:0.08899999;stroke-linecap:round;stroke-linejoin:round;stroke-miterlimit:4;stroke-dasharray:none"
       id="circle1030"
       cx="100.80625"
       cy="290.38541"
       r="0.52916664" />
    <path
       id="path1032"
       d="m 107.15624,289.85623 a 0.52916663,0.52916663 0 0 0 -0.52917,0.52917 0.52916663,0.52916663 0 0 0 0.52917,0.52917 h 2.64583 a 0.52916663,0.52916663 0 0 0 0.52917,-0.52917 0.52916663,0.52916663 0 0 0 -0.52917,-0.52917 z"
       style="fill:#000000;fill-opacity:1;stroke:none;stroke-width:0.08899999;stroke-linecap:round;stroke-linejoin:round;stroke-miterlimit:4;stroke-dasharray:none"
       inkscape:connector-curvature="0" />
    <circle
       style="fill:#000000;fill-opacity:1;stroke:none;stroke-width:0.08899999;stroke-linecap:round;stroke-linejoin:round;stroke-miterlimit:4;stroke-dasharray:none"
       id="circle1034"
       cx="111.125"
       cy="290.38541"
       r="0.52916664" />
    <path
       sodipodi:nodetypes="ccccscscccccccccssccccccccccsccscssccccccccccccsccccccccscccscc"
       d="m 234.41872,282.83937 c 0,0.86066 -0.0922,1.56763 -0.27664,2.12091 -0.18443,0.54099 -0.47952,1.03894 -0.88525,1.49386 -0.50411,0.56557 -1.1619,0.96516 -1.97337,1.19877 -0.43033,0.11066 -0.83607,0.16599 -1.21722,0.16599 -0.90984,0 -1.73362,-0.28894 -2.47133,-0.86681 l -0.0922,2.52528 c -0.0278,0.76179 0.0799,1.38935 0.23976,1.88115 0.17213,0.50411 0.46721,0.94059 0.88525,1.30944 l -0.36886,0.64549 c -0.33197,-0.17213 -0.73156,-0.28894 -1.19877,-0.35041 -0.46722,-0.0492 -1.10042,-0.0738 -1.8996,-0.0738 -0.60247,0.0615 -1.19878,0.20286 -1.78895,0.42418 l -0.44263,-0.79304 c 0.29509,-0.22131 0.51025,-0.48565 0.6455,-0.79303 0.14755,-0.30738 0.28894,-0.84222 0.42419,-1.60452 0.0246,-0.18443 0.0553,-0.48566 0.0922,-0.90369 0.0369,-0.41803 0.0553,-2.64208 0.0553,-2.94946 v -0.64549 -0.70083 -0.59016 l -0.0184,-0.73771 c 0,-0.5041 -0.006,-0.86681 -0.0185,-1.08812 -0.0123,-0.23361 -0.0369,-0.51025 -0.0738,-0.82992 -0.0984,-1.14345 -0.21516,-1.91805 -0.35041,-2.32378 -0.13525,-0.41804 -0.36885,-0.76845 -0.70083,-1.05124 l 0.40575,-0.60861 c 0.39344,0.15984 0.75615,0.27664 1.08812,0.35041 0.33197,0.0615 0.71311,0.0922 1.14344,0.0922 0.46722,0 1.2787,-0.0492 2.43444,-0.14754 l 0.71927,-0.0738 c 0.0738,-0.0123 0.14754,-0.0184 0.22131,-0.0184 h 0.20287 0.42418 c 0.35656,0 0.65164,0.0246 0.88525,0.0738 0.23361,0.0492 0.52254,0.14141 0.86681,0.27664 0.65164,0.28279 1.18033,0.62706 1.58607,1.03279 0.41803,0.39345 0.7623,0.9037 1.03279,1.53075 0.28279,0.62705 0.42419,1.30329 0.42419,2.0287 z m -3.90986,-0.16599 v -0.20287 l -0.0184,-0.40574 c 0,-0.31967 -0.0123,-0.59017 -0.0369,-0.81148 -0.0246,-0.22131 -0.0492,-0.39958 -0.0738,-0.53483 -0.0738,-0.44263 -0.14754,-0.7746 -0.22131,-0.99591 -0.0738,-0.23361 -0.17213,-0.42418 -0.29508,-0.57172 -0.18443,-0.22131 -0.43648,-0.33197 -0.75615,-0.33197 -0.39345,0 -0.71312,0.16598 -0.95902,0.49795 -0.11066,0.14754 -0.20288,0.33811 -0.27665,0.57172 -0.0615,0.23361 -0.11679,0.54714 -0.16598,0.94058 l -0.0553,0.44263 -0.0738,1.06967 0.0553,1.49386 c 0.0615,0.67623 0.12909,1.16189 0.20287,1.45698 0.0861,0.29508 0.22131,0.55328 0.40574,0.77459 0.2582,0.29509 0.58197,0.41937 0.92213,0.44263 0.18039,0.0123 0.38115,-0.0553 0.5164,-0.16599 0.18443,-0.14754 0.32582,-0.35656 0.42418,-0.62705 0.11066,-0.27049 0.22132,-0.70697 0.33197,-1.30943 0.0246,-0.18443 0.043,-0.43648 0.0553,-0.75615 0.0123,-0.31967 0.0184,-0.6455 0.0184,-0.97747 z"
       style="font-style:normal;font-variant:normal;font-weight:normal;font-stretch:normal;font-size:medium;line-height:1.25;font-family:Storybook;-inkscape-font-specification:Storybook;text-align:center;letter-spacing:0px;word-spacing:0px;text-anchor:middle;fill:#000000;fill-opacity:1;stroke:none;stroke-width:0.46106765"
       id="path1257"
       inkscape:connector-curvature="0" />
    <circle
       r="0.52916664"
       cy="290.38541"
       cx="222.51459"
       id="circle1259"
       style="fill:#000000;fill-opacity:1;stroke:none;stroke-width:0.08899999;stroke-linecap:round;stroke-linejoin:round;stroke-miterlimit:4;stroke-dasharray:none" />
    <path
       inkscape:connector-curvature="0"
       style="fill:#000000;fill-opacity:1;stroke:none;stroke-width:0.08899999;stroke-linecap:round;stroke-linejoin:round;stroke-miterlimit:4;stroke-dasharray:none"
       d="m 228.86465,289.85623 a 0.52916663,0.52916663 0 0 0 -0.52917,0.52917 0.52916663,0.52916663 0 0 0 0.52917,0.52917 h 2.64583 a 0.52916663,0.52916663 0 0 0 0.52917,-0.52917 0.52916663,0.52916663 0 0 0 -0.52917,-0.52917 z"
       id="path1261" />
    <circle
       r="0.52916664"
       cy="290.38541"
       cx="232.83344"
       id="circle1263"
       style="fill:#000000;fill-opacity:1;stroke:none;stroke-width:0.08899999;stroke-linecap:round;stroke-linejoin:round;stroke-miterlimit:4;stroke-dasharray:none" />
    <path
       inkscape:connector-curvature="0"
       style="fill:#000000;fill-opacity:1;stroke:none;stroke-width:0.08899999;stroke-linecap:round;stroke-linejoin:round;stroke-miterlimit:4;stroke-dasharray:none"
       d="m 195.79166,289.85623 a 0.52916663,0.52916663 0 0 0 -0.52917,0.52917 0.52916663,0.52916663 0 0 0 0.52917,0.52917 h 2.64583 a 0.52916663,0.52916663 0 0 0 0.52917,-0.52917 0.52916663,0.52916663 0 0 0 -0.52917,-0.52917 z"
       id="path1265" />
    <circle
       style="fill:#000000;fill-opacity:1;stroke:none;stroke-width:0.08899999;stroke-linecap:round;stroke-linejoin:round;stroke-miterlimit:4;stroke-dasharray:none"
       id="circle1267"
       cx="199.76041"
       cy="290.38541"
       r="0.52916664" />
    <path
       id="path1269"
       d="m 191.82291,289.85623 a 0.52916663,0.52916663 0 0 0 -0.52917,0.52917 0.52916663,0.52916663 0 0 0 0.52917,0.52917 h 2.64583 a 0.52916663,0.52916663 0 0 0 0.52917,-0.52917 0.52916663,0.52916663 0 0 0 -0.52917,-0.52917 z"
       style="fill:#000000;fill-opacity:1;stroke:none;stroke-width:0.08899999;stroke-linecap:round;stroke-linejoin:round;stroke-miterlimit:4;stroke-dasharray:none"
       inkscape:connector-curvature="0" />
  </g>
</svg>
